<mxfile host="app.diagrams.net" agent="Mozilla/5.0 (Windows NT 10.0; Win64; x64) AppleWebKit/537.36 (KHTML, like Gecko) Chrome/126.0.0.0 YaBrowser/24.7.0.0 Safari/537.36" version="24.7.17">
  <diagram name="Страница — 1" id="bSJZbhXd8VlQ9XZKoLv6">
    <mxGraphModel dx="1932" dy="1867" grid="1" gridSize="10" guides="1" tooltips="1" connect="1" arrows="1" fold="1" page="1" pageScale="1" pageWidth="827" pageHeight="1169" math="0" shadow="0">
      <root>
        <mxCell id="0" />
        <mxCell id="1" parent="0" />
        <mxCell id="CBX8Peww-ikw76v_2hch-1" value="Item&lt;div&gt;&lt;br&gt;&lt;/div&gt;" style="swimlane;fontStyle=1;align=center;verticalAlign=top;childLayout=stackLayout;horizontal=1;startSize=26;horizontalStack=0;resizeParent=1;resizeParentMax=0;resizeLast=0;collapsible=1;marginBottom=0;whiteSpace=wrap;html=1;" parent="1" vertex="1">
          <mxGeometry x="150" y="60" width="180" height="260" as="geometry">
            <mxRectangle x="70" y="60" width="60" height="40" as="alternateBounds" />
          </mxGeometry>
        </mxCell>
        <mxCell id="CBX8Peww-ikw76v_2hch-2" value="- _id: int&lt;div&gt;- _name: string&lt;/div&gt;&lt;div&gt;- _info: string&lt;/div&gt;&lt;div&gt;- _ cost: double&lt;/div&gt;&lt;div&gt;- _&lt;u&gt;allItemCount&lt;/u&gt;&lt;/div&gt;" style="text;strokeColor=none;fillColor=none;align=left;verticalAlign=top;spacingLeft=4;spacingRight=4;overflow=hidden;rotatable=0;points=[[0,0.5],[1,0.5]];portConstraint=eastwest;whiteSpace=wrap;html=1;" parent="CBX8Peww-ikw76v_2hch-1" vertex="1">
          <mxGeometry y="26" width="180" height="74" as="geometry" />
        </mxCell>
        <mxCell id="CBX8Peww-ikw76v_2hch-3" value="" style="line;strokeWidth=1;fillColor=none;align=left;verticalAlign=middle;spacingTop=-1;spacingLeft=3;spacingRight=3;rotatable=0;labelPosition=right;points=[];portConstraint=eastwest;strokeColor=inherit;" parent="CBX8Peww-ikw76v_2hch-1" vertex="1">
          <mxGeometry y="100" width="180" height="10" as="geometry" />
        </mxCell>
        <mxCell id="CBX8Peww-ikw76v_2hch-4" value="&lt;div&gt;+ Category {get;set;}: Category&lt;/div&gt;+ Id {get;}: int&lt;div&gt;+ Name {get;set;}: string&lt;/div&gt;&lt;div&gt;+ Info {get;set;}: string&lt;/div&gt;&lt;div&gt;+ Cost {get;set;}: double&lt;/div&gt;&lt;div&gt;+ Item(name: string,info: string, cost: double)&lt;/div&gt;&lt;div&gt;+ ToString(): string&lt;/div&gt;" style="text;strokeColor=none;fillColor=none;align=left;verticalAlign=top;spacingLeft=4;spacingRight=4;overflow=hidden;rotatable=0;points=[[0,0.5],[1,0.5]];portConstraint=eastwest;whiteSpace=wrap;html=1;" parent="CBX8Peww-ikw76v_2hch-1" vertex="1">
          <mxGeometry y="110" width="180" height="150" as="geometry" />
        </mxCell>
        <mxCell id="CBX8Peww-ikw76v_2hch-14" value="Customer" style="swimlane;fontStyle=1;align=center;verticalAlign=top;childLayout=stackLayout;horizontal=1;startSize=26;horizontalStack=0;resizeParent=1;resizeParentMax=0;resizeLast=0;collapsible=1;marginBottom=0;whiteSpace=wrap;html=1;" parent="1" vertex="1">
          <mxGeometry x="390" y="70" width="180" height="260" as="geometry" />
        </mxCell>
        <mxCell id="CBX8Peww-ikw76v_2hch-15" value="- _id: int&lt;div&gt;- _fullname: string&lt;/div&gt;&lt;div&gt;- _address: Address&lt;/div&gt;&lt;div&gt;- _&lt;u&gt;allCustomersCount&lt;/u&gt;&lt;br&gt;&lt;/div&gt;" style="text;strokeColor=none;fillColor=none;align=left;verticalAlign=top;spacingLeft=4;spacingRight=4;overflow=hidden;rotatable=0;points=[[0,0.5],[1,0.5]];portConstraint=eastwest;whiteSpace=wrap;html=1;" parent="CBX8Peww-ikw76v_2hch-14" vertex="1">
          <mxGeometry y="26" width="180" height="64" as="geometry" />
        </mxCell>
        <mxCell id="CBX8Peww-ikw76v_2hch-16" value="" style="line;strokeWidth=1;fillColor=none;align=left;verticalAlign=middle;spacingTop=-1;spacingLeft=3;spacingRight=3;rotatable=0;labelPosition=right;points=[];portConstraint=eastwest;strokeColor=inherit;" parent="CBX8Peww-ikw76v_2hch-14" vertex="1">
          <mxGeometry y="90" width="180" height="8" as="geometry" />
        </mxCell>
        <mxCell id="CBX8Peww-ikw76v_2hch-17" value="+ Id {get;}: int&lt;div&gt;+ FullName {get;set;}: string&lt;/div&gt;&lt;div&gt;+ Address {get;set;}: Address&lt;/div&gt;&lt;div&gt;+ Customer(fullname: string, address: string)&lt;/div&gt;&lt;div&gt;&lt;br&gt;&lt;/div&gt;" style="text;strokeColor=none;fillColor=none;align=left;verticalAlign=top;spacingLeft=4;spacingRight=4;overflow=hidden;rotatable=0;points=[[0,0.5],[1,0.5]];portConstraint=eastwest;whiteSpace=wrap;html=1;" parent="CBX8Peww-ikw76v_2hch-14" vertex="1">
          <mxGeometry y="98" width="180" height="162" as="geometry" />
        </mxCell>
        <mxCell id="CBX8Peww-ikw76v_2hch-33" value="ValueValidator" style="swimlane;fontStyle=0;childLayout=stackLayout;horizontal=1;startSize=26;fillColor=none;horizontalStack=0;resizeParent=1;resizeParentMax=0;resizeLast=0;collapsible=1;marginBottom=0;whiteSpace=wrap;html=1;" parent="1" vertex="1">
          <mxGeometry x="200" y="470" width="420" height="120" as="geometry" />
        </mxCell>
        <mxCell id="CBX8Peww-ikw76v_2hch-37" value="" style="endArrow=none;html=1;rounded=0;" parent="CBX8Peww-ikw76v_2hch-33" source="CBX8Peww-ikw76v_2hch-34" edge="1">
          <mxGeometry width="50" height="50" relative="1" as="geometry">
            <mxPoint x="10" y="52.5" as="sourcePoint" />
            <mxPoint x="400" y="52.5" as="targetPoint" />
          </mxGeometry>
        </mxCell>
        <mxCell id="CBX8Peww-ikw76v_2hch-34" value="&lt;u&gt;+ AssertStringOnLength(value: string, maxLength: int, propertyName: string)&lt;/u&gt;&lt;div&gt;&lt;u&gt;&lt;br&gt;&lt;/u&gt;&lt;/div&gt;&lt;div&gt;&lt;u&gt;+ AssertStringOnLength(value: int, maxLength: int, propertyName: string)&lt;/u&gt;&lt;u&gt;&lt;br&gt;&lt;/u&gt;&lt;/div&gt;" style="text;strokeColor=none;fillColor=none;align=left;verticalAlign=top;spacingLeft=4;spacingRight=4;overflow=hidden;rotatable=0;points=[[0,0.5],[1,0.5]];portConstraint=eastwest;whiteSpace=wrap;html=1;" parent="CBX8Peww-ikw76v_2hch-33" vertex="1">
          <mxGeometry y="26" width="420" height="94" as="geometry" />
        </mxCell>
        <mxCell id="CBX8Peww-ikw76v_2hch-41" value="" style="endArrow=classic;html=1;rounded=0;entryX=0.355;entryY=-0.012;entryDx=0;entryDy=0;entryPerimeter=0;exitX=0.48;exitY=1.011;exitDx=0;exitDy=0;exitPerimeter=0;dashed=1;dashPattern=8 8;" parent="1" source="CBX8Peww-ikw76v_2hch-4" target="CBX8Peww-ikw76v_2hch-33" edge="1">
          <mxGeometry width="50" height="50" relative="1" as="geometry">
            <mxPoint x="280" y="250" as="sourcePoint" />
            <mxPoint x="330" y="190" as="targetPoint" />
            <Array as="points" />
          </mxGeometry>
        </mxCell>
        <mxCell id="CBX8Peww-ikw76v_2hch-43" value="Use&lt;div&gt;&lt;br&gt;&lt;/div&gt;" style="text;whiteSpace=wrap;html=1;" parent="1" vertex="1">
          <mxGeometry x="240" y="370" width="80" height="40" as="geometry" />
        </mxCell>
        <mxCell id="CBX8Peww-ikw76v_2hch-44" value="" style="endArrow=classic;html=1;rounded=0;entryX=0.524;entryY=-0.062;entryDx=0;entryDy=0;entryPerimeter=0;exitX=0.488;exitY=1.002;exitDx=0;exitDy=0;exitPerimeter=0;dashed=1;dashPattern=12 12;" parent="1" source="CBX8Peww-ikw76v_2hch-17" target="CBX8Peww-ikw76v_2hch-33" edge="1">
          <mxGeometry width="50" height="50" relative="1" as="geometry">
            <mxPoint x="480" y="370" as="sourcePoint" />
            <mxPoint x="520" y="420" as="targetPoint" />
          </mxGeometry>
        </mxCell>
        <mxCell id="vVkm3M7Bc62QDpljcO6y-1" value="Use&lt;div&gt;&lt;br&gt;&lt;/div&gt;" style="text;whiteSpace=wrap;html=1;" parent="1" vertex="1">
          <mxGeometry x="430" y="360" width="60" height="40" as="geometry" />
        </mxCell>
        <mxCell id="-jvOCAUqFoUlGoQlLWJj-3" value="&lt;div&gt;&amp;lt;&amp;lt;enumeration&amp;gt;&amp;gt;&lt;/div&gt;Category" style="swimlane;fontStyle=0;childLayout=stackLayout;horizontal=1;startSize=30;horizontalStack=0;resizeParent=1;resizeParentMax=0;resizeLast=0;collapsible=1;marginBottom=0;whiteSpace=wrap;html=1;" parent="1" vertex="1">
          <mxGeometry x="-90" y="60" width="140" height="230" as="geometry" />
        </mxCell>
        <mxCell id="-jvOCAUqFoUlGoQlLWJj-4" value="Ноутбуки" style="text;strokeColor=none;fillColor=none;align=left;verticalAlign=middle;spacingLeft=4;spacingRight=4;overflow=hidden;points=[[0,0.5],[1,0.5]];portConstraint=eastwest;rotatable=0;whiteSpace=wrap;html=1;" parent="-jvOCAUqFoUlGoQlLWJj-3" vertex="1">
          <mxGeometry y="30" width="140" height="30" as="geometry" />
        </mxCell>
        <mxCell id="-jvOCAUqFoUlGoQlLWJj-5" value="Смартфоны" style="text;strokeColor=none;fillColor=none;align=left;verticalAlign=middle;spacingLeft=4;spacingRight=4;overflow=hidden;points=[[0,0.5],[1,0.5]];portConstraint=eastwest;rotatable=0;whiteSpace=wrap;html=1;" parent="-jvOCAUqFoUlGoQlLWJj-3" vertex="1">
          <mxGeometry y="60" width="140" height="30" as="geometry" />
        </mxCell>
        <mxCell id="-jvOCAUqFoUlGoQlLWJj-6" value="Колонки&lt;div&gt;&lt;br&gt;&lt;/div&gt;" style="text;strokeColor=none;fillColor=none;align=left;verticalAlign=middle;spacingLeft=4;spacingRight=4;overflow=hidden;points=[[0,0.5],[1,0.5]];portConstraint=eastwest;rotatable=0;whiteSpace=wrap;html=1;" parent="-jvOCAUqFoUlGoQlLWJj-3" vertex="1">
          <mxGeometry y="90" width="140" height="20" as="geometry" />
        </mxCell>
        <mxCell id="-jvOCAUqFoUlGoQlLWJj-7" value="&lt;div&gt;Мониторы&lt;/div&gt;" style="text;strokeColor=none;fillColor=none;align=left;verticalAlign=middle;spacingLeft=4;spacingRight=4;overflow=hidden;points=[[0,0.5],[1,0.5]];portConstraint=eastwest;rotatable=0;whiteSpace=wrap;html=1;" parent="-jvOCAUqFoUlGoQlLWJj-3" vertex="1">
          <mxGeometry y="110" width="140" height="30" as="geometry" />
        </mxCell>
        <mxCell id="-jvOCAUqFoUlGoQlLWJj-9" value="&lt;div&gt;Телевизоры&lt;/div&gt;" style="text;strokeColor=none;fillColor=none;align=left;verticalAlign=middle;spacingLeft=4;spacingRight=4;overflow=hidden;points=[[0,0.5],[1,0.5]];portConstraint=eastwest;rotatable=0;whiteSpace=wrap;html=1;" parent="-jvOCAUqFoUlGoQlLWJj-3" vertex="1">
          <mxGeometry y="140" width="140" height="30" as="geometry" />
        </mxCell>
        <mxCell id="-jvOCAUqFoUlGoQlLWJj-10" value="&lt;div&gt;Клавиатуры&lt;/div&gt;" style="text;strokeColor=none;fillColor=none;align=left;verticalAlign=middle;spacingLeft=4;spacingRight=4;overflow=hidden;points=[[0,0.5],[1,0.5]];portConstraint=eastwest;rotatable=0;whiteSpace=wrap;html=1;" parent="-jvOCAUqFoUlGoQlLWJj-3" vertex="1">
          <mxGeometry y="170" width="140" height="30" as="geometry" />
        </mxCell>
        <mxCell id="-jvOCAUqFoUlGoQlLWJj-8" value="&lt;div&gt;Мышки&lt;/div&gt;" style="text;strokeColor=none;fillColor=none;align=left;verticalAlign=middle;spacingLeft=4;spacingRight=4;overflow=hidden;points=[[0,0.5],[1,0.5]];portConstraint=eastwest;rotatable=0;whiteSpace=wrap;html=1;" parent="-jvOCAUqFoUlGoQlLWJj-3" vertex="1">
          <mxGeometry y="200" width="140" height="30" as="geometry" />
        </mxCell>
        <mxCell id="-jvOCAUqFoUlGoQlLWJj-11" value="1" style="endArrow=classic;startArrow=diamondThin;html=1;rounded=0;exitX=1.013;exitY=0.071;exitDx=0;exitDy=0;exitPerimeter=0;entryX=-0.012;entryY=0.104;entryDx=0;entryDy=0;entryPerimeter=0;startFill=1;labelPosition=right;verticalLabelPosition=middle;align=left;verticalAlign=middle;fontSize=16;horizontal=1;sourcePerimeterSpacing=6;endSize=10;startSize=15;" parent="1" source="-jvOCAUqFoUlGoQlLWJj-3" target="CBX8Peww-ikw76v_2hch-4" edge="1">
          <mxGeometry x="0.798" y="-15" width="50" height="50" relative="1" as="geometry">
            <mxPoint x="70.00000000000018" y="107.25" as="sourcePoint" />
            <mxPoint x="152.13999999999984" y="204.25" as="targetPoint" />
            <mxPoint as="offset" />
            <Array as="points" />
          </mxGeometry>
        </mxCell>
        <mxCell id="mxS2oQHGdXcPrg1Cj4dg-13" value="1" style="edgeLabel;html=1;align=center;verticalAlign=middle;resizable=0;points=[];" parent="-jvOCAUqFoUlGoQlLWJj-11" vertex="1" connectable="0">
          <mxGeometry x="-0.4699" relative="1" as="geometry">
            <mxPoint x="2" y="-16" as="offset" />
          </mxGeometry>
        </mxCell>
        <mxCell id="mxS2oQHGdXcPrg1Cj4dg-1" value="Address" style="swimlane;fontStyle=1;align=center;verticalAlign=top;childLayout=stackLayout;horizontal=1;startSize=26;horizontalStack=0;resizeParent=1;resizeParentMax=0;resizeLast=0;collapsible=1;marginBottom=0;whiteSpace=wrap;html=1;" parent="1" vertex="1">
          <mxGeometry x="650" y="60" width="170" height="320" as="geometry" />
        </mxCell>
        <mxCell id="mxS2oQHGdXcPrg1Cj4dg-2" value="- _index: int&lt;div&gt;- _country: string&lt;/div&gt;&lt;div&gt;- _city: string&lt;br&gt;&lt;/div&gt;&lt;div&gt;- _street: string&lt;br&gt;&lt;/div&gt;&lt;div&gt;- _building: string&lt;br&gt;&lt;/div&gt;&lt;div&gt;- _apartment: string&lt;br&gt;&lt;/div&gt;" style="text;strokeColor=none;fillColor=none;align=left;verticalAlign=top;spacingLeft=4;spacingRight=4;overflow=hidden;rotatable=0;points=[[0,0.5],[1,0.5]];portConstraint=eastwest;whiteSpace=wrap;html=1;" parent="mxS2oQHGdXcPrg1Cj4dg-1" vertex="1">
          <mxGeometry y="26" width="170" height="104" as="geometry" />
        </mxCell>
        <mxCell id="mxS2oQHGdXcPrg1Cj4dg-3" value="" style="line;strokeWidth=1;fillColor=none;align=left;verticalAlign=middle;spacingTop=-1;spacingLeft=3;spacingRight=3;rotatable=0;labelPosition=right;points=[];portConstraint=eastwest;strokeColor=inherit;" parent="mxS2oQHGdXcPrg1Cj4dg-1" vertex="1">
          <mxGeometry y="130" width="170" height="10" as="geometry" />
        </mxCell>
        <mxCell id="mxS2oQHGdXcPrg1Cj4dg-4" value="+ Index {get;}: int&lt;div&gt;+ Country {get;set;}: string&lt;/div&gt;&lt;div&gt;+ City {get;set;}: string&lt;/div&gt;&lt;div&gt;+ Street {get;set;}: string&lt;br&gt;&lt;/div&gt;&lt;div&gt;+ Building {get;set;}: string&lt;br&gt;&lt;/div&gt;&lt;div&gt;+ Apartment {get;set;}: string&lt;br&gt;&lt;/div&gt;&lt;div&gt;+Address()&lt;/div&gt;&lt;div&gt;+Address(index:int, country:string, city: string, street: string, building: string, apartment: string)&lt;br&gt;&lt;/div&gt;" style="text;strokeColor=none;fillColor=none;align=left;verticalAlign=top;spacingLeft=4;spacingRight=4;overflow=hidden;rotatable=0;points=[[0,0.5],[1,0.5]];portConstraint=eastwest;whiteSpace=wrap;html=1;" parent="mxS2oQHGdXcPrg1Cj4dg-1" vertex="1">
          <mxGeometry y="140" width="170" height="180" as="geometry" />
        </mxCell>
        <mxCell id="mxS2oQHGdXcPrg1Cj4dg-7" value="1" style="endArrow=classic;startArrow=diamondThin;html=1;rounded=0;entryX=-0.017;entryY=0.055;entryDx=0;entryDy=0;entryPerimeter=0;exitX=1.011;exitY=0.88;exitDx=0;exitDy=0;exitPerimeter=0;startFill=1;startSize=12;fontSize=15;" parent="1" source="CBX8Peww-ikw76v_2hch-15" target="mxS2oQHGdXcPrg1Cj4dg-1" edge="1">
          <mxGeometry x="0.707" y="9" width="50" height="50" relative="1" as="geometry">
            <mxPoint x="560" y="200" as="sourcePoint" />
            <mxPoint x="610" y="150" as="targetPoint" />
            <mxPoint as="offset" />
          </mxGeometry>
        </mxCell>
        <mxCell id="mxS2oQHGdXcPrg1Cj4dg-8" value="&lt;font style=&quot;font-size: 14px;&quot;&gt;1&lt;/font&gt;" style="text;html=1;align=center;verticalAlign=middle;whiteSpace=wrap;rounded=0;" parent="1" vertex="1">
          <mxGeometry x="580" y="130" width="20" height="20" as="geometry" />
        </mxCell>
        <mxCell id="yHyRr1Zge0281pwU12AB-2" value="1" style="endArrow=classic;startArrow=classic;html=1;rounded=0;entryX=0;entryY=0.5;entryDx=0;entryDy=0;exitX=0.75;exitY=0;exitDx=0;exitDy=0;" edge="1" parent="1" source="CBX8Peww-ikw76v_2hch-33" target="mxS2oQHGdXcPrg1Cj4dg-4">
          <mxGeometry x="-0.825" y="9" width="50" height="50" relative="1" as="geometry">
            <mxPoint x="550" y="370" as="sourcePoint" />
            <mxPoint x="600" y="320" as="targetPoint" />
            <mxPoint as="offset" />
          </mxGeometry>
        </mxCell>
        <mxCell id="yHyRr1Zge0281pwU12AB-3" value="n validation&lt;div&gt;&lt;br&gt;&lt;/div&gt;" style="edgeLabel;html=1;align=center;verticalAlign=middle;resizable=0;points=[];" vertex="1" connectable="0" parent="yHyRr1Zge0281pwU12AB-2">
          <mxGeometry x="0.0939" y="3" relative="1" as="geometry">
            <mxPoint x="33" y="-65" as="offset" />
          </mxGeometry>
        </mxCell>
        <mxCell id="yHyRr1Zge0281pwU12AB-4" value="Store" style="swimlane;fontStyle=1;align=center;verticalAlign=top;childLayout=stackLayout;horizontal=1;startSize=26;horizontalStack=0;resizeParent=1;resizeParentMax=0;resizeLast=0;collapsible=1;marginBottom=0;whiteSpace=wrap;html=1;" vertex="1" parent="1">
          <mxGeometry x="260" y="-240" width="230" height="140" as="geometry" />
        </mxCell>
        <mxCell id="yHyRr1Zge0281pwU12AB-5" value="- _items: List&amp;lt;Item&amp;gt;&lt;div&gt;- _customers: List&amp;lt;Customer&amp;gt;&lt;br&gt;&lt;/div&gt;&lt;div&gt;&lt;br&gt;&lt;/div&gt;" style="text;strokeColor=none;fillColor=none;align=left;verticalAlign=top;spacingLeft=4;spacingRight=4;overflow=hidden;rotatable=0;points=[[0,0.5],[1,0.5]];portConstraint=eastwest;whiteSpace=wrap;html=1;" vertex="1" parent="yHyRr1Zge0281pwU12AB-4">
          <mxGeometry y="26" width="230" height="44" as="geometry" />
        </mxCell>
        <mxCell id="yHyRr1Zge0281pwU12AB-6" value="" style="line;strokeWidth=1;fillColor=none;align=left;verticalAlign=middle;spacingTop=-1;spacingLeft=3;spacingRight=3;rotatable=0;labelPosition=right;points=[];portConstraint=eastwest;strokeColor=inherit;" vertex="1" parent="yHyRr1Zge0281pwU12AB-4">
          <mxGeometry y="70" width="230" height="8" as="geometry" />
        </mxCell>
        <mxCell id="yHyRr1Zge0281pwU12AB-7" value="+ Items {get;set;}: List&amp;lt;Item&amp;gt;&lt;div&gt;+ Customers {get;set;}: List&amp;lt;Customer&amp;gt;&lt;/div&gt;&lt;div&gt;+ Store()&lt;/div&gt;" style="text;strokeColor=none;fillColor=none;align=left;verticalAlign=top;spacingLeft=4;spacingRight=4;overflow=hidden;rotatable=0;points=[[0,0.5],[1,0.5]];portConstraint=eastwest;whiteSpace=wrap;html=1;" vertex="1" parent="yHyRr1Zge0281pwU12AB-4">
          <mxGeometry y="78" width="230" height="62" as="geometry" />
        </mxCell>
        <mxCell id="yHyRr1Zge0281pwU12AB-8" value="" style="endArrow=diamondThin;startArrow=classic;html=1;rounded=0;entryX=0.296;entryY=1.01;entryDx=0;entryDy=0;entryPerimeter=0;exitX=0.75;exitY=0;exitDx=0;exitDy=0;endFill=1;endSize=14;" edge="1" parent="1" source="CBX8Peww-ikw76v_2hch-1" target="yHyRr1Zge0281pwU12AB-7">
          <mxGeometry width="50" height="50" relative="1" as="geometry">
            <mxPoint x="290" y="-20" as="sourcePoint" />
            <mxPoint x="340" y="-70" as="targetPoint" />
          </mxGeometry>
        </mxCell>
        <mxCell id="yHyRr1Zge0281pwU12AB-10" value="1" style="edgeLabel;html=1;align=center;verticalAlign=middle;resizable=0;points=[];" vertex="1" connectable="0" parent="yHyRr1Zge0281pwU12AB-8">
          <mxGeometry x="0.0772" y="-1" relative="1" as="geometry">
            <mxPoint x="1" y="-64" as="offset" />
          </mxGeometry>
        </mxCell>
        <mxCell id="yHyRr1Zge0281pwU12AB-9" value="" style="endArrow=diamondThin;startArrow=classic;html=1;rounded=0;exitX=0.431;exitY=-0.005;exitDx=0;exitDy=0;exitPerimeter=0;endFill=1;endSize=14;" edge="1" parent="1" source="CBX8Peww-ikw76v_2hch-14">
          <mxGeometry width="50" height="50" relative="1" as="geometry">
            <mxPoint x="370" y="60" as="sourcePoint" />
            <mxPoint x="424" y="-101" as="targetPoint" />
          </mxGeometry>
        </mxCell>
        <mxCell id="yHyRr1Zge0281pwU12AB-12" value="1" style="edgeLabel;html=1;align=center;verticalAlign=middle;resizable=0;points=[];" vertex="1" connectable="0" parent="yHyRr1Zge0281pwU12AB-9">
          <mxGeometry x="0.2373" y="-3" relative="1" as="geometry">
            <mxPoint x="-3" y="-49" as="offset" />
          </mxGeometry>
        </mxCell>
        <mxCell id="yHyRr1Zge0281pwU12AB-13" value="n" style="edgeLabel;html=1;align=center;verticalAlign=middle;resizable=0;points=[];" vertex="1" connectable="0" parent="yHyRr1Zge0281pwU12AB-9">
          <mxGeometry x="0.0939" relative="1" as="geometry">
            <mxPoint x="26" y="68" as="offset" />
          </mxGeometry>
        </mxCell>
        <mxCell id="yHyRr1Zge0281pwU12AB-11" value="n" style="edgeLabel;html=1;align=center;verticalAlign=middle;resizable=0;points=[];" vertex="1" connectable="0" parent="1">
          <mxGeometry x="320.0021536680195" y="-70.00358108570482" as="geometry">
            <mxPoint x="-44" y="107" as="offset" />
          </mxGeometry>
        </mxCell>
      </root>
    </mxGraphModel>
  </diagram>
</mxfile>
